<svg id="L" xmlns="http://www.w3.org/2000/svg" viewBox="0 0 1300.22 442.86"><defs><style>.cls-1{font-size:123.58px;font-family:Cinzel-Regular, Cinzel;letter-spacing:0.1em;}.cls-1,.cls-7{fill:#231f20;}.cls-2{letter-spacing:0.09em;}.cls-3{letter-spacing:0.07em;}.cls-4{letter-spacing:0.09em;}.cls-5{letter-spacing:0.07em;}.cls-6{letter-spacing:0.1em;}</style></defs><text class="cls-1" transform="translate(408 303.7)">IT<tspan class="cls-2" x="142.86" y="0">E</tspan><tspan class="cls-3" x="225.29" y="0">R</tspan><tspan x="317.6" y="0">AS</tspan><tspan class="cls-4" x="489.01" y="0">U</tspan><tspan class="cls-5" x="596.77" y="0">R</tspan><tspan class="cls-6" x="689.08" y="0">E</tspan></text><path class="cls-7" d="M140.65,34.06,217,31.25c.25,0,.49,0,.73,0L294,34.06Z"/><path class="cls-7" d="M236.77,141.54V268.65c0,24.91,6.18,25.66,38.47,25.09l7.53-.09a115.09,115.09,0,0,0,17.59-1.35A77.88,77.88,0,0,0,320.23,286a123.4,123.4,0,0,0,24.09-15.31c4.94-3.89,9.67-8,14.26-12.33a49.48,49.48,0,0,0,7.29-7.74c1.91-2.77,3.52-5.75,5.25-8.63a20.32,20.32,0,0,1,3.25-4.73l0,0a4.56,4.56,0,0,1,2.85-1.25c3.71-.24,6.94,4.12,6.42,7.59-.26,1.72-.56,3.44-.88,5.15-.43,2.27-1,4.52-1.35,6.8a1.85,1.85,0,0,0,0,.23c-.48,3.2-10.09,53.26-10.09,53.26H152.9c-3.38,0-3.71-9.28,2.06-11.06l.06,0a7.18,7.18,0,0,1,2-.27c8.1,0,18.55.13,26.46-4.39a21.26,21.26,0,0,0,9.63-11.66,38.17,38.17,0,0,0,2-13V69c0-24-50.83-24.59-56.47-24.82s0-10.12,0-10.12,55.11,5.58,77.33,5.58h1.4c23-.21,75.92-5.57,75.92-5.57s5.63,9.88,0,10.12S236.77,45,236.77,69Z"/><path class="cls-7" d="M179.14,289.81c-9.66-7.52-22-15-37.23-22.15-15.92-9.21-33.52-23.39-33.85-43.35-.26-15.36,9.55-29,19.95-39.5a144.37,144.37,0,0,1,62.54-36.94c1.5-.43,3-.83,4.52-1.2v5.67c-84.5,31.44-86.64,69.27-21.84,110.15A111.87,111.87,0,0,1,190.83,279c.77.89,1.52,1.8,2.26,2.71a21.26,21.26,0,0,1-9.63,11.66Q181.39,291.56,179.14,289.81Z"/><path class="cls-7" d="M195.07,268.65a38.17,38.17,0,0,1-2,13c-.74-.91-1.49-1.82-2.26-2.71.66-2,4.24-13.15,4.24-24.48Z"/><path class="cls-7" d="M374.37,237.3a20.32,20.32,0,0,0-3.25,4.73c-1.73,2.88-3.34,5.86-5.25,8.63a49.48,49.48,0,0,1-7.29,7.74c-4.59,4.3-9.32,8.44-14.26,12.33A123.4,123.4,0,0,1,320.23,286a77.88,77.88,0,0,1-19.87,6.26,115.09,115.09,0,0,1-17.59,1.35l-7.53.09c-32.29.57-38.47-.18-38.47-25.09V254.59h0c.06,1.8,1.39,23.19,29.51,24.67,16.12.85,47-2.77,66.35-14.91C352.82,251.71,371.47,239.24,374.37,237.3Z"/><path class="cls-7" d="M259,144.2c8.32,2.66,14.58,8.51,14.07,17.68-.33,6.08-2.95,12-5.86,17.23,0,0-10.88,23.24-30.4,40.06V200.88c14.74-17.57,17.07-41.89,0-50.49v-8.85C244.28,141.41,251.83,141.93,259,144.2Z"/><path class="cls-7" d="M179.14,289.81q2.25,1.76,4.32,3.51c-7.91,4.52-18.36,4.39-26.46,4.39a7.18,7.18,0,0,0-2,.27Z"/><path class="cls-7" d="M209.28,309.06c21.82,54.52-10,117.79-149.69,86.13l10.66-18.12c72.78,42.74,170.29-9.88,128.08-68Z"/><path class="cls-7" d="M236.78,232.16v-.65A5.39,5.39,0,0,1,236.78,232.16Z"/></svg>